<svg width="58" height="50" viewBox="0 0 58 50" fill="none" xmlns="http://www.w3.org/2000/svg">
<path d="M8.91406 5.63281C9.89844 4.10156 11.0156 2.90625 12.2656 2.04688C13.5312 1.1875 14.5703 0.757812 15.3828 0.757812C16.1953 0.757812 16.6016 0.921875 16.6016 1.25C16.6016 1.375 16.4141 1.48438 16.0391 1.57812H15.9922C12.9766 2.26562 10.6094 5.25781 8.89062 10.5547C8.51562 11.7422 7.64844 15.1641 6.28906 20.8203C4.94531 26.4609 4.21875 29.4766 4.10938 29.8672L3.875 30.7344C7.20312 30.6094 10.4688 30.5469 13.6719 30.5469C14.1719 30.5469 14.5547 30.8672 14.8203 31.5078C14.8984 31.7109 14.9375 31.8906 14.9375 32.0469C14.9219 32.3594 14.1484 32.5234 12.6172 32.5391C11.1016 32.5547 8.90625 32.6562 6.03125 32.8438C3.15625 33.0312 1.67969 33.125 1.60156 33.125C1.03906 33.125 0.757812 32.9297 0.757812 32.5391C0.757812 32.1484 0.9375 31.3672 1.29688 30.1953C1.67188 29.0078 2.40625 26.1172 3.5 21.5234L4.22656 18.5469C5.71094 12.5312 7.27344 8.22656 8.91406 5.63281ZM19.5078 32.9844C17.9453 32.9844 17.1641 32.0391 17.1641 30.1484C17.1641 28.2578 17.7891 24.9297 19.0391 20.1641C20.3047 15.3984 21.7031 11.3203 23.2344 7.92969C23.5469 7.25781 23.7266 6.85938 23.7734 6.73438C24.3672 5.57812 25.0938 5 25.9531 5C26.8125 5 27.4062 5.22656 27.7344 5.67969C28.5312 6.63281 28.9766 7.96094 29.0703 9.66406C29.1641 11.3672 29.1328 12.7969 28.9766 13.9531C28.1484 20.2812 26.6172 25.0469 24.3828 28.25L23.9141 28.9531C22.1172 31.6406 20.6484 32.9844 19.5078 32.9844ZM27.3594 10.3438C27.1875 8.875 26.9531 8.14844 26.6562 8.16406C25.5156 8.22656 23.8516 12.1719 21.6641 20C20.4609 24.3281 19.8594 27.0625 19.8594 28.2031C19.875 28.2344 19.8906 28.3594 19.9062 28.5781C19.9375 28.7812 20.0312 28.8828 20.1875 28.8828C20.3906 28.8672 20.6875 28.6484 21.0781 28.2266C22.1562 26.9922 23.3281 24.9375 24.5938 22.0625C26.4844 17.7969 27.4297 14.1875 27.4297 11.2344C27.4297 11 27.4062 10.7031 27.3594 10.3438ZM40.6719 11.3281C40.4219 11.3281 40.2188 11.1719 40.0625 10.8594C40.0625 9.875 39.9453 9.11719 39.7109 8.58594C39.4922 8.05469 39.2969 7.78125 39.125 7.76562C37.875 7.76562 36.5234 10.1719 35.0703 14.9844C33.9453 18.7031 33.1406 22.3516 32.6562 25.9297C32.5312 26.8672 32.4688 27.6172 32.4688 28.1797C32.4688 28.7422 32.5859 29.0391 32.8203 29.0703C33.6172 29.0234 34.625 27.7422 35.8438 25.2266C37.0625 22.7109 37.9219 20.2656 38.4219 17.8906C38.5469 17.2656 38.6172 16.7344 38.6328 16.2969C38.4141 16.2969 38.2422 16.2656 38.1172 16.2031C37.6953 15.9844 37.4688 15.6406 37.4375 15.1719C37.4688 14.9531 37.5547 14.8281 37.6953 14.7969C41.8672 14.2344 44.9062 13.9531 46.8125 13.9531C47.0469 14.0781 47.1953 14.4922 47.2578 15.1953C47.2422 15.4609 47.0312 15.6016 46.625 15.6172C45.625 15.6641 44.6328 15.7734 43.6484 15.9453C42.6641 16.1172 42.1172 16.2109 42.0078 16.2266C41.6328 17.7734 41.4375 18.6406 41.4219 18.8281C41.4062 19.0156 41.3438 19.375 41.2344 19.9062C38.7812 32.4688 35.9766 40.9609 32.8203 45.3828C31.7422 46.8828 30.5703 48.0156 29.3047 48.7812C28.0391 49.5469 27.0469 49.9297 26.3281 49.9297C25.3906 49.9297 24.9219 49.75 24.9219 49.3906C24.9219 49.2812 25.0312 49.2031 25.25 49.1562C25.4531 49.1094 25.5547 49.0781 25.5547 49.0625C26.7578 48.875 27.9453 48.1562 29.1172 46.9062C29.4141 46.5781 29.6719 46.2578 29.8906 45.9453C32.5156 42.2891 35.0312 36.3359 37.4375 28.0859C37.75 27.0391 37.9766 26.2188 38.1172 25.625C36.1328 30.5312 34.1406 32.9844 32.1406 32.9844C30.5781 32.9844 29.7969 31.9609 29.7969 29.9141C29.7969 27.8672 30.5 24.3047 31.9062 19.2266C33.3125 14.1328 34.6328 10.2422 35.8672 7.55469C36.3516 6.50781 36.7734 5.76562 37.1328 5.32812C37.5078 4.875 38.0312 4.64063 38.7031 4.625C40.1562 4.625 41 5.64844 41.2344 7.69531C41.2969 8.22656 41.3125 8.96094 41.2812 9.89844C41.25 10.8359 41.0469 11.3125 40.6719 11.3281ZM47.3516 32.9844C45.7891 32.9844 45.0078 32.0391 45.0078 30.1484C45.0078 28.2578 45.6328 24.9297 46.8828 20.1641C48.1484 15.3984 49.5469 11.3203 51.0781 7.92969C51.3906 7.25781 51.5703 6.85938 51.6172 6.73438C52.2109 5.57812 52.9375 5 53.7969 5C54.6562 5 55.25 5.22656 55.5781 5.67969C56.375 6.63281 56.8203 7.96094 56.9141 9.66406C57.0078 11.3672 56.9766 12.7969 56.8203 13.9531C55.9922 20.2812 54.4609 25.0469 52.2266 28.25L51.7578 28.9531C49.9609 31.6406 48.4922 32.9844 47.3516 32.9844ZM55.2031 10.3438C55.0312 8.875 54.7969 8.14844 54.5 8.16406C53.3594 8.22656 51.6953 12.1719 49.5078 20C48.3047 24.3281 47.7031 27.0625 47.7031 28.2031C47.7188 28.2344 47.7344 28.3594 47.75 28.5781C47.7812 28.7812 47.875 28.8828 48.0312 28.8828C48.2344 28.8672 48.5312 28.6484 48.9219 28.2266C50 26.9922 51.1719 24.9375 52.4375 22.0625C54.3281 17.7969 55.2734 14.1875 55.2734 11.2344C55.2734 11 55.25 10.7031 55.2031 10.3438Z" fill="white"/>
</svg>
