<svg width="39" height="39" viewBox="0 0 39 39" fill="none" xmlns="http://www.w3.org/2000/svg">
<path d="M6.5 18.75C6.08579 18.75 5.75 19.0858 5.75 19.5C5.75 19.9142 6.08579 20.25 6.5 20.25V18.75ZM32.5 20.25C32.9142 20.25 33.25 19.9142 33.25 19.5C33.25 19.0858 32.9142 18.75 32.5 18.75V20.25ZM6.5 9C6.08579 9 5.75 9.33579 5.75 9.75C5.75 10.1642 6.08579 10.5 6.5 10.5V9ZM32.5 10.5C32.9142 10.5 33.25 10.1642 33.25 9.75C33.25 9.33579 32.9142 9 32.5 9V10.5ZM6.5 28.5C6.08579 28.5 5.75 28.8358 5.75 29.25C5.75 29.6642 6.08579 30 6.5 30V28.5ZM32.5 30C32.9142 30 33.25 29.6642 33.25 29.25C33.25 28.8358 32.9142 28.5 32.5 28.5V30ZM6.5 20.25H32.5V18.75H6.5V20.25ZM6.5 10.5H32.5V9H6.5V10.5ZM6.5 30H32.5V28.5H6.5V30Z" fill="white"/>
</svg>
